<?xml version="1.0" encoding="UTF-8"?>
<svg width="229px" height="99px" viewBox="0 0 229 99" version="1.1" xmlns="http://www.w3.org/2000/svg" xmlns:xlink="http://www.w3.org/1999/xlink">
    <title>Group</title>
    <g id="Page-1" stroke="none" stroke-width="1" fill="none" fill-rule="evenodd">
        <g id="Artboard" transform="translate(-63.000000, -49.000000)">
            <g id="Group" transform="translate(63.000000, 49.000000)">
                <g id="Group-2">
                    <path d="M6,0 L99,0 L99,0 L99,93 C99,96.3137085 96.3137085,99 93,99 L0,99 L0,99 L0,6 C-4.05812251e-16,2.6862915 2.6862915,6.08718376e-16 6,0 Z" id="Rectangle" fill="#FF6C47"></path>
                    <path d="M32.072,67 L32.072,51.784 L40.136,51.784 L40.136,67 L47.048,67 L47.048,32.728 L40.136,32.728 L40.136,45.832 L32.072,45.832 L32.072,32.728 L25.16,32.728 L25.16,67 L32.072,67 Z M58.184,67 L58.184,43 L58.28,43 L66.728,67 L74.6,67 L74.6,32.728 L68.264,32.728 L68.264,56.2 L68.168,56.2 L59.816,32.728 L51.848,32.728 L51.848,67 L58.184,67 Z" id="HN" fill="#FFFFFF" fill-rule="nonzero"></path>
                </g>
                <path d="M120.184,41.208 L120.184,29.796 L126.232,29.796 L126.232,41.208 L131.416,41.208 L131.416,15.504 L126.232,15.504 L126.232,25.332 L120.184,25.332 L120.184,15.504 L115,15.504 L115,41.208 L120.184,41.208 Z M138.616,41.208 L139.804,35.772 L146.644,35.772 L147.832,41.208 L153.232,41.208 L146.428,15.504 L140.02,15.504 L133.216,41.208 L138.616,41.208 Z M145.744,31.524 L140.704,31.524 L143.188,19.968 L143.26,19.968 L145.744,31.524 Z M163.24,41.604 C164.944,41.604 166.33,41.34 167.398,40.812 C168.466,40.284 169.294,39.552 169.882,38.616 C170.47,37.68 170.872,36.588 171.088,35.34 C171.304,34.092 171.412,32.772 171.412,31.38 L166.228,31.38 C166.228,32.772 166.144,33.894 165.976,34.746 C165.808,35.598 165.58,36.258 165.292,36.726 C165.004,37.194 164.662,37.506 164.266,37.662 C163.87,37.818 163.444,37.896 162.988,37.896 C162.436,37.896 161.95,37.782 161.53,37.554 C161.11,37.326 160.762,36.882 160.486,36.222 C160.21,35.562 160.006,34.632 159.874,33.432 C159.742,32.232 159.676,30.66 159.676,28.716 C159.676,26.892 159.724,25.35 159.82,24.09 C159.916,22.83 160.084,21.81 160.324,21.03 C160.564,20.25 160.894,19.686 161.314,19.338 C161.734,18.99 162.268,18.816 162.916,18.816 C164.092,18.816 164.902,19.242 165.346,20.094 C165.79,20.946 166.012,22.308 166.012,24.18 L171.196,24.18 C171.196,23.244 171.13,22.242 170.998,21.174 C170.866,20.106 170.536,19.11 170.008,18.186 C169.48,17.262 168.682,16.5 167.614,15.9 C166.546,15.3 165.088,15 163.24,15 C161.296,15 159.748,15.33 158.596,15.99 C157.444,16.65 156.562,17.568 155.95,18.744 C155.338,19.92 154.942,21.33 154.762,22.974 C154.582,24.618 154.492,26.412 154.492,28.356 C154.492,30.324 154.582,32.124 154.762,33.756 C154.942,35.388 155.338,36.792 155.95,37.968 C156.562,39.144 157.444,40.044 158.596,40.668 C159.748,41.292 161.296,41.604 163.24,41.604 Z M179.548,41.208 L179.548,33.576 L181.456,30.66 L186.748,41.208 L192.58,41.208 L184.804,26.52 L191.788,15.504 L186.172,15.504 L179.62,25.8 L179.548,25.8 L179.548,15.504 L174.364,15.504 L174.364,41.208 L179.548,41.208 Z M208.42,41.208 L208.42,36.96 L198.88,36.96 L198.88,30.048 L207.52,30.048 L207.52,25.8 L198.88,25.8 L198.88,19.752 L208.06,19.752 L208.06,15.504 L193.696,15.504 L193.696,41.208 L208.42,41.208 Z M216.196,41.208 L216.196,30.336 L218.968,30.336 C220.048,30.336 220.816,30.624 221.272,31.2 C221.728,31.776 221.98,32.568 222.028,33.576 L222.172,38.508 C222.196,39.012 222.244,39.498 222.316,39.966 C222.388,40.434 222.556,40.848 222.82,41.208 L228.436,41.208 L228.436,40.992 C227.956,40.728 227.644,40.236 227.5,39.516 C227.404,38.796 227.332,37.752 227.284,36.384 C227.26,35.688 227.236,35.058 227.212,34.494 C227.188,33.93 227.152,33.408 227.104,32.928 C226.96,31.488 226.588,30.444 225.988,29.796 C225.388,29.148 224.44,28.728 223.144,28.536 L223.144,28.464 C224.608,28.152 225.688,27.45 226.384,26.358 C227.08,25.266 227.428,23.856 227.428,22.128 C227.428,19.896 226.828,18.234 225.628,17.142 C224.428,16.05 222.748,15.504 220.588,15.504 L211.012,15.504 L211.012,41.208 L216.196,41.208 Z M218.356,26.736 L216.196,26.736 L216.196,19.32 L218.644,19.32 C221.044,19.32 222.244,20.508 222.244,22.884 C222.244,24.276 221.908,25.266 221.236,25.854 C220.564,26.442 219.604,26.736 218.356,26.736 Z M119.752,84.208 L119.752,66.208 L119.824,66.208 L126.16,84.208 L132.064,84.208 L132.064,58.504 L127.312,58.504 L127.312,76.108 L127.24,76.108 L120.976,58.504 L115,58.504 L115,84.208 L119.752,84.208 Z M150.388,84.208 L150.388,79.96 L140.848,79.96 L140.848,73.048 L149.488,73.048 L149.488,68.8 L140.848,68.8 L140.848,62.752 L150.028,62.752 L150.028,58.504 L135.664,58.504 L135.664,84.208 L150.388,84.208 Z M161.944,84.208 L164.824,65.56 L164.896,65.56 L167.776,84.208 L173.572,84.208 L178.252,58.504 L173.284,58.504 L170.44,77.512 L170.368,77.512 L167.344,58.504 L162.376,58.504 L159.352,77.512 L159.28,77.512 L156.436,58.504 L151.468,58.504 L156.148,84.208 L161.944,84.208 Z M187.504,84.604 C190.312,84.604 192.502,83.986 194.074,82.75 C195.646,81.514 196.432,79.54 196.432,76.828 C196.432,76.036 196.36,75.316 196.216,74.668 C196.072,74.02 195.814,73.426 195.442,72.886 C195.07,72.346 194.572,71.842 193.948,71.374 C193.324,70.906 192.52,70.456 191.536,70.024 L187.54,68.296 C186.436,67.84 185.716,67.342 185.38,66.802 C185.044,66.262 184.876,65.596 184.876,64.804 C184.876,64.42 184.918,64.048 185.002,63.688 C185.086,63.328 185.242,63.01 185.47,62.734 C185.698,62.458 186.004,62.236 186.388,62.068 C186.772,61.9 187.252,61.816 187.828,61.816 C188.836,61.816 189.556,62.146 189.988,62.806 C190.42,63.466 190.636,64.408 190.636,65.632 L195.604,65.632 L195.604,64.912 C195.604,63.688 195.406,62.638 195.01,61.762 C194.614,60.886 194.062,60.166 193.354,59.602 C192.646,59.038 191.806,58.63 190.834,58.378 C189.862,58.126 188.8,58 187.648,58 C185.176,58 183.232,58.624 181.816,59.872 C180.4,61.12 179.692,63.016 179.692,65.56 C179.692,66.616 179.824,67.546 180.088,68.35 C180.352,69.154 180.766,69.862 181.33,70.474 C181.894,71.086 182.596,71.62 183.436,72.076 C184.276,72.532 185.272,72.952 186.424,73.336 C187.288,73.624 188.014,73.906 188.602,74.182 C189.19,74.458 189.664,74.764 190.024,75.1 C190.384,75.436 190.642,75.814 190.798,76.234 C190.954,76.654 191.032,77.152 191.032,77.728 C191.032,78.808 190.714,79.606 190.078,80.122 C189.442,80.638 188.728,80.896 187.936,80.896 C187.264,80.896 186.706,80.8 186.262,80.608 C185.818,80.416 185.464,80.152 185.2,79.816 C184.936,79.48 184.756,79.066 184.66,78.574 C184.564,78.082 184.516,77.536 184.516,76.936 L184.516,76.18 L179.332,76.18 L179.332,77.224 C179.332,79.6 179.962,81.424 181.222,82.696 C182.482,83.968 184.576,84.604 187.504,84.604 Z" id="HACKERNEWS" fill="#333333" fill-rule="nonzero"></path>
            </g>
        </g>
    </g>
</svg>